<svg xmlns="http://www.w3.org/2000/svg" width="176.081" height="37.737" viewBox="0 0 176.081 37.737"><g fill="#FFF"><path d="M32.867 10.102c-1.586-5.16-6.656-8.817-12.42-8.817-6.832 0-12.193 5.18-12.53 11.817-.377-.064-.762-.105-1.16-.105-3.732 0-6.757 2.975-6.757 6.65 0 3.16 2.375 6.073 5.383 6.745h1.975c.088-.012.177-.02.268-.023-.91-1.67-1.43-3.587-1.43-5.618 0-6.498 5.287-11.782 11.785-11.782 6.497 0 11.782 5.284 11.782 11.782 0 2.04-.522 3.965-1.44 5.64h3.172c4.563 0 8.68-3.74 8.68-8.224-.002-4.17-3.195-7.6-7.307-8.066M8.876 28.33c-.618-.618-1.618-.618-2.236 0l-5.59 5.59c-.617.618-.618 1.618 0 2.235l1.117 1.12c.618.616 1.62.616 2.236 0l5.59-5.59c.617-.62.617-1.62 0-2.237L8.877 28.33z"/><path d="M9.045 19.548h18.25v2.404H9.045z"/><path d="M23.512 26.392c-1.426 1.398-3.38 2.264-5.53 2.264-4.36 0-7.907-3.545-7.907-7.904 0-4.36 3.546-7.906 7.906-7.906s7.907 3.547 7.907 7.906c0 .408-.032.81-.092 1.2h2.39c.047-.394.074-.796.074-1.2 0-5.677-4.605-10.278-10.28-10.278-5.676 0-10.277 4.6-10.277 10.278 0 5.676 4.6 10.277 10.278 10.277 3.594 0 6.754-1.847 8.592-4.638h-3.06zM54.074 16.987c0-7.615 2.964-9.774 8.857-9.774 5.97 0 8.934 2.16 8.934 9.774 0 7.65-2.93 9.918-8.933 9.918-5.927 0-8.856-2.27-8.856-9.918m4.686.073c0 5.162.988 6.187 4.172 6.187 3.26 0 4.246-1.025 4.246-6.187 0-5.344-.987-6.188-4.246-6.188-3.184 0-4.172.844-4.172 6.188M73.96 16.987c0-7.615 2.966-9.774 8.86-9.774 5.966 0 8.933 2.16 8.933 9.774 0 7.65-2.93 9.918-8.934 9.918-5.93 0-8.86-2.27-8.86-9.918m4.686.073c0 5.162.988 6.187 4.173 6.187 3.258 0 4.245-1.025 4.245-6.187 0-5.344-.987-6.188-4.246-6.188-3.185 0-4.174.844-4.174 6.188M98.996 21.16c0 1.792.403 3.038 1.428 4.392l-3.99 1.72c-1.28-1.462-1.978-3.22-1.978-5.93V-.035h4.54V21.16zM107.463 2.234c0 2.16-.62 2.525-2.6 2.525-2.013 0-2.635-.367-2.635-2.526 0-1.94.622-2.234 2.636-2.234 1.978 0 2.6.295 2.6 2.234m-.367 24.162h-4.54V7.76h4.54v18.636zM122.734 26.396c-4.21-6.113-6.772-9.41-7.798-9.85v9.85h-4.538V-.034h4.538v16.58c1.025-.84 3.553-3.842 7.212-8.784h5.382c-3.588 4.834-6.15 7.688-7.14 8.457.953.584 3.735 3.99 7.688 10.176h-5.344z"/><path d="M127.87 16.987c0-7.615 2.964-9.774 8.857-9.774 5.968 0 8.934 2.16 8.934 9.774 0 7.65-2.93 9.918-8.933 9.918-5.93 0-8.858-2.27-8.858-9.918m4.684.073c0 5.162.99 6.187 4.174 6.187 3.258 0 4.247-1.025 4.247-6.187 0-5.344-.99-6.188-4.247-6.188-3.185 0-4.174.844-4.174 6.188M154.428 11.716v8.017c0 2.305.624 3.256 2.82 3.256 1.207 0 2.27-.22 3.186-.513l.805 3.586c-1.32.477-3.333.842-5.127.842-4.173 0-6.222-1.242-6.222-6.77v-8.42h-3.11V7.76h3.11V4.613l4.538-1.867V7.76h6.188v3.956h-6.188zM169.272 11.716v8.017c0 2.305.622 3.256 2.818 3.256 1.208 0 2.27-.22 3.185-.513l.806 3.586c-1.315.477-3.33.842-5.123.842-4.173 0-6.224-1.242-6.224-6.77v-8.42h-3.112V7.76h3.113V4.613l4.54-1.867V7.76h6.187v3.956h-6.188zM43.968 12.595c1.28-1.062 4.943-5.126 9.63-11.714h-5.86c-3.235 4.778-6.184 8.36-8.16 10.4 1.5 1.625 2.472 3.726 2.665 6.028 1.76 2.2 3.886 5.222 6.23 9.087h5.93c-5.09-8.457-9.19-12.958-10.435-13.8M34.434 8.247c1.206.296 2.322.8 3.312 1.463V.88h-4.833v4.632c.604.848 1.118 1.762 1.52 2.735"/></g></svg>