<svg xmlns="http://www.w3.org/2000/svg" width="40.496" height="37.736" viewBox="0 0 40.496 37.736"><path fill="#FFF" d="M32.867 10.102c-1.586-5.16-6.656-8.816-12.42-8.816-6.832 0-12.193 5.18-12.53 11.816-.377-.063-.762-.104-1.16-.104C3.026 12.998 0 15.972 0 19.646c0 3.16 2.375 6.074 5.383 6.746h1.975c.088-.012.177-.02.268-.022-.91-1.67-1.43-3.586-1.43-5.617 0-6.498 5.287-11.782 11.785-11.782 6.497 0 11.782 5.285 11.782 11.783 0 2.04-.522 3.965-1.44 5.64h3.172c4.563 0 8.68-3.74 8.68-8.224-.002-4.172-3.195-7.6-7.307-8.068M8.876 28.33c-.618-.618-1.618-.618-2.236 0l-5.59 5.59c-.617.618-.618 1.618 0 2.235l1.117 1.118c.618.617 1.62.617 2.236 0l5.59-5.59c.617-.62.617-1.62 0-2.235L8.877 28.33z"/><path fill="#FFF" d="M9.045 19.548h18.25v2.404H9.045z"/><path fill="#FFF" d="M23.512 26.392c-1.426 1.398-3.38 2.265-5.53 2.265-4.36 0-7.907-3.546-7.907-7.904 0-4.36 3.546-7.906 7.906-7.906s7.907 3.547 7.907 7.906c0 .408-.032.81-.092 1.2h2.39c.047-.395.074-.796.074-1.2 0-5.677-4.605-10.278-10.28-10.278-5.676 0-10.277 4.602-10.277 10.278s4.6 10.276 10.278 10.276c3.594 0 6.754-1.847 8.592-4.638h-3.06z"/></svg>