<?xml version="1.0" encoding="utf-8"?>
<svg version="1.1" id="Layer_1" xmlns="http://www.w3.org/2000/svg" xmlns:xlink="http://www.w3.org/1999/xlink" x="0px" y="0px"
	 width="176.081px" height="37.737px" viewBox="0 0 176.081 37.737" enable-background="new 0 0 176.081 37.737"
	 xml:space="preserve">
<g>
	<path fill="#FFFFFF" d="M32.867,10.102c-1.586-5.159-6.656-8.817-12.421-8.817c-6.831,0-12.192,5.18-12.53,11.817
		c-0.376-0.064-0.761-0.105-1.158-0.105C3.025,12.997,0,15.972,0,19.646c0,3.16,2.375,6.074,5.383,6.746h1.975
		c0.088-0.012,0.177-0.02,0.268-0.023c-0.911-1.67-1.429-3.586-1.429-5.617c0-6.498,5.286-11.782,11.784-11.782
		c6.496,0,11.781,5.284,11.781,11.782c0,2.041-0.522,3.965-1.44,5.641h3.172c4.563,0,8.679-3.74,8.679-8.225
		C40.172,13.998,36.979,10.569,32.867,10.102"/>
	<path fill="#FFFFFF" d="M8.876,28.331c-0.618-0.619-1.618-0.619-2.236,0l-5.589,5.588c-0.618,0.619-0.619,1.619-0.002,2.236
		l1.118,1.119c0.618,0.617,1.619,0.617,2.236,0l5.591-5.59c0.616-0.619,0.616-1.619,0-2.236L8.876,28.331z"/>
	<rect x="9.045" y="19.548" fill="#FFFFFF" width="18.25" height="2.404"/>
	<path fill="#FFFFFF" d="M23.512,26.392c-1.426,1.398-3.38,2.264-5.531,2.264c-4.359,0-7.906-3.545-7.906-7.904
		c0-4.359,3.546-7.906,7.906-7.906s7.906,3.547,7.906,7.906c0,0.408-0.032,0.809-0.092,1.201h2.391
		c0.046-0.395,0.073-0.797,0.073-1.201c0-5.677-4.604-10.278-10.278-10.278c-5.677,0-10.278,4.601-10.278,10.278
		c0,5.676,4.601,10.277,10.278,10.277c3.593,0,6.753-1.846,8.591-4.637H23.512z"/>
	<path fill="#FFFFFF" d="M54.074,16.987c0-7.615,2.964-9.774,8.857-9.774c5.968,0,8.933,2.159,8.933,9.774
		c0,7.649-2.93,9.918-8.933,9.918C57.003,26.905,54.074,24.636,54.074,16.987 M58.76,17.06c0,5.162,0.988,6.187,4.172,6.187
		c3.259,0,4.246-1.025,4.246-6.187c0-5.344-0.987-6.188-4.246-6.188C59.748,10.873,58.76,11.716,58.76,17.06"/>
	<path fill="#FFFFFF" d="M73.96,16.987c0-7.615,2.966-9.774,8.859-9.774c5.967,0,8.934,2.159,8.934,9.774
		c0,7.649-2.93,9.918-8.934,9.918C76.889,26.905,73.96,24.636,73.96,16.987 M78.646,17.06c0,5.162,0.988,6.187,4.173,6.187
		c3.259,0,4.246-1.025,4.246-6.187c0-5.344-0.987-6.188-4.246-6.188C79.635,10.873,78.646,11.716,78.646,17.06"/>
	<path fill="#FFFFFF" d="M98.996,21.159c0,1.793,0.403,3.039,1.428,4.393l-3.99,1.721c-1.281-1.463-1.978-3.221-1.978-5.93V-0.036
		h4.54V21.159z"/>
	<path fill="#FFFFFF" d="M107.463,2.234c0,2.16-0.621,2.525-2.599,2.525c-2.014,0-2.636-0.366-2.636-2.525
		c0-1.939,0.622-2.234,2.636-2.234C106.842,0,107.463,0.295,107.463,2.234 M107.097,26.396h-4.539V7.761h4.539V26.396z"/>
	<path fill="#FFFFFF" d="M122.734,26.396c-4.209-6.113-6.772-9.409-7.798-9.849v9.849h-4.538V-0.035h4.538v16.582
		c1.025-0.841,3.553-3.843,7.212-8.785h5.382c-3.588,4.834-6.149,7.688-7.14,8.457c0.953,0.585,3.735,3.99,7.688,10.177H122.734z"/>
	<path fill="#FFFFFF" d="M127.869,16.987c0-7.615,2.965-9.774,8.858-9.774c5.968,0,8.934,2.159,8.934,9.774
		c0,7.649-2.93,9.918-8.934,9.918C130.797,26.905,127.869,24.636,127.869,16.987 M132.554,17.06c0,5.162,0.989,6.187,4.174,6.187
		c3.258,0,4.247-1.025,4.247-6.187c0-5.344-0.989-6.188-4.247-6.188C133.543,10.873,132.554,11.716,132.554,17.06"/>
	<path fill="#FFFFFF" d="M154.428,11.716v8.017c0,2.305,0.624,3.256,2.82,3.256c1.207,0,2.27-0.219,3.186-0.512l0.805,3.586
		c-1.318,0.477-3.332,0.842-5.126,0.842c-4.173,0-6.222-1.242-6.222-6.77v-8.419h-3.111V7.76h3.111V4.613l4.537-1.867V7.76h6.188
		v3.956H154.428z"/>
	<path fill="#FFFFFF" d="M169.272,11.716v8.017c0,2.305,0.622,3.256,2.818,3.256c1.208,0,2.27-0.219,3.185-0.512l0.806,3.586
		c-1.316,0.477-3.331,0.842-5.124,0.842c-4.173,0-6.224-1.242-6.224-6.77v-8.419h-3.112V7.76h3.112V4.613l4.539-1.867V7.76h6.188
		v3.956H169.272z"/>
	<path fill="#FFFFFF" d="M43.968,12.595c1.281-1.062,4.943-5.126,9.629-11.714h-5.858c-3.236,4.777-6.185,8.358-8.162,10.399
		c1.5,1.625,2.473,3.726,2.666,6.028c1.76,2.201,3.886,5.222,6.229,9.087h5.93C49.313,17.938,45.213,13.437,43.968,12.595"/>
	<path fill="#FFFFFF" d="M34.434,8.247c1.206,0.296,2.322,0.799,3.312,1.463V0.881h-4.833v4.631
		C33.517,6.36,34.031,7.274,34.434,8.247"/>
</g>
</svg>