<?xml version="1.0" encoding="utf-8"?>
<svg version="1.1"
	 xmlns="http://www.w3.org/2000/svg" xmlns:xlink="http://www.w3.org/1999/xlink" x="0px" y="0px" width="40.496px"
	 height="37.736px" viewBox="0 0 40.496 37.736" enable-background="new 0 0 40.496 37.736" xml:space="preserve">
<path fill="#FFFFFF" d="M32.867,10.102c-1.586-5.159-6.656-8.816-12.421-8.816c-6.831,0-12.192,5.18-12.53,11.816
	c-0.376-0.063-0.761-0.104-1.158-0.104C3.025,12.997,0,15.972,0,19.646c0,3.16,2.375,6.074,5.383,6.746h1.975
	c0.088-0.012,0.177-0.02,0.268-0.022c-0.911-1.67-1.429-3.586-1.429-5.617c0-6.498,5.286-11.782,11.784-11.782
	c6.496,0,11.781,5.284,11.781,11.782c0,2.041-0.522,3.965-1.44,5.641h3.172c4.563,0,8.679-3.74,8.679-8.225
	C40.172,13.998,36.979,10.569,32.867,10.102"/>
<path fill="#FFFFFF" d="M8.876,28.331c-0.618-0.619-1.618-0.619-2.236,0l-5.589,5.588c-0.618,0.619-0.619,1.619-0.002,2.236
	l1.118,1.118c0.618,0.617,1.619,0.617,2.236,0l5.591-5.59c0.616-0.619,0.616-1.619,0-2.235L8.876,28.331z"/>
<rect x="9.045" y="19.548" fill="#FFFFFF" width="18.25" height="2.404"/>
<path fill="#FFFFFF" d="M23.512,26.392c-1.426,1.398-3.38,2.265-5.531,2.265c-4.359,0-7.906-3.546-7.906-7.904
	c0-4.359,3.546-7.906,7.906-7.906s7.906,3.547,7.906,7.906c0,0.408-0.032,0.809-0.092,1.201h2.391
	c0.046-0.396,0.073-0.797,0.073-1.201c0-5.677-4.604-10.278-10.278-10.278c-5.677,0-10.278,4.602-10.278,10.278
	c0,5.676,4.601,10.276,10.278,10.276c3.593,0,6.753-1.846,8.591-4.637H23.512z"/>
</svg>